# xmcd
#
# Track frame offsets:
#	150
#	17496
#	41695
#	64361
#	83346
#	98562
#	115761
#	135078
#	153866
#	175746
#	194728
#	215097
#	236975
#	256093
#	277267
#	295569
#	318797
#	340133
#
# Disc length: 4735 seconds
#
# Revision: 0
# Processed by: cddbd v1.5.1PL0 Copyright (c) Steve Scherf et al.
# Submitted via: dBpowerAMP V4.0
#
DISCID=f5127d12
DTITLE=Cam Ly, Dan Truong, Van Quang Long - The Best Of Chinese Melody 5
DYEAR=1900
DGENRE=
TTITLE0=Van Quang Long and Cam ly - Loi Cuoi Cho Tinh Yeu
TTITLE1=Tran Tam - Noi Doi
TTITLE2=Dan Truong - Dong Doi Troi Mai 
TTITLE3=Quach an an - Mot Doi Yeu Anh
TTITLE4=Lam Truong - Dem Trang Ben Em
TTITLE5=Khanh Dang - Ong Troi Cung Khoc
TTITLE6=Quang ha - Mong Lang Quen Mot Cuoc Tinh
TTITLE7=Cam ly and Van Quang Long - Tinh Ngan Nam
TTITLE8=Tuan Hung - Van Nho
TTITLE9=Ly Hai - Quen Duoc Thi Quen
TTITLE10=Dan Truong - Khoc Tham
TTITLE11=Song Giang - Hoang Hon Tren San Ga
TTITLE12=Van Quang Long - em se Khoc vi Toi
TTITLE13=Minh Quan - Dong Song di Vang
TTITLE14=Tran Tam - Toi se Khong Yeu
TTITLE15=Cam ly - Mua Tinh
TTITLE16=Phan Dinh Tung - Noi Xua Anh Cho
TTITLE17=Lam Hung and Quach an an - Tram Nam Tinh Dau
EXTD=
EXTT0=
EXTT1=
EXTT2=
EXTT3=
EXTT4=
EXTT5=
EXTT6=
EXTT7=
EXTT8=
EXTT9=
EXTT10=
EXTT11=
EXTT12=
EXTT13=
EXTT14=
EXTT15=
EXTT16=
EXTT17=
PLAYORDER=
